<svg xmlns="http://www.w3.org/2000/svg" viewBox="0 0 480 560" width="480" height="560" role="img" aria-label="DutchVMS logo">
<rect width="480" height="560" fill="#000000"/>
<circle cx="37" cy="41" r="1.4" fill="#3A3A46"/>
<circle cx="92" cy="88" r="1.4" fill="#3A3A46"/>
<circle cx="150" cy="30" r="1.4" fill="#3A3A46"/>
<circle cx="210" cy="70" r="1.4" fill="#3A3A46"/>
<circle cx="300" cy="40" r="1.4" fill="#3A3A46"/>
<circle cx="360" cy="95" r="1.4" fill="#3A3A46"/>
<circle cx="420" cy="130" r="1.4" fill="#3A3A46"/>
<circle cx="60" cy="180" r="1.4" fill="#3A3A46"/>
<circle cx="440" cy="220" r="1.4" fill="#3A3A46"/>
<circle cx="410" cy="300" r="1.4" fill="#3A3A46"/>
<circle cx="30" cy="340" r="1.4" fill="#3A3A46"/>
<circle cx="60" cy="480" r="1.4" fill="#3A3A46"/>
<circle cx="420" cy="460" r="1.4" fill="#3A3A46"/>
<circle cx="450" cy="400" r="1.4" fill="#3A3A46"/>
<circle cx="20" cy="420" r="1.4" fill="#3A3A46"/>
<circle cx="250" cy="20" r="1.4" fill="#3A3A46"/>
<circle cx="180" cy="500" r="1.4" fill="#3A3A46"/>
<circle cx="330" cy="510" r="1.4" fill="#3A3A46"/>
<line x1="252.0" y1="272.0" x2="343.9" y2="180.1" stroke="#FF6B1A" stroke-width="3" stroke-linecap="round"/>
<line x1="228.0" y1="248.0" x2="319.9" y2="156.1" stroke="#FF6B1A" stroke-width="3" stroke-linecap="round"/>
<line x1="343.9" y1="180.1" x2="319.9" y2="156.1" stroke="#FF6B1A" stroke-width="3" stroke-linecap="round"/>
<line x1="240.0" y1="260.0" x2="331.9" y2="168.1" stroke="#FF6B1A" stroke-width="3" stroke-linecap="round"/>
<line x1="265.2" y1="258.9" x2="241.1" y2="234.8" stroke="#FF6B1A" stroke-width="3" stroke-linecap="round"/>
<line x1="278.3" y1="245.8" x2="254.2" y2="221.7" stroke="#FF6B1A" stroke-width="3" stroke-linecap="round"/>
<line x1="291.4" y1="232.6" x2="267.4" y2="208.6" stroke="#FF6B1A" stroke-width="3" stroke-linecap="round"/>
<line x1="304.5" y1="219.5" x2="280.5" y2="195.5" stroke="#FF6B1A" stroke-width="3" stroke-linecap="round"/>
<line x1="317.7" y1="206.4" x2="293.6" y2="182.3" stroke="#FF6B1A" stroke-width="3" stroke-linecap="round"/>
<line x1="330.8" y1="193.2" x2="306.8" y2="169.2" stroke="#FF6B1A" stroke-width="3" stroke-linecap="round"/>
<line x1="252.0" y1="248.0" x2="160.1" y2="156.1" stroke="#FF6B1A" stroke-width="3" stroke-linecap="round"/>
<line x1="228.0" y1="272.0" x2="136.1" y2="180.1" stroke="#FF6B1A" stroke-width="3" stroke-linecap="round"/>
<line x1="160.1" y1="156.1" x2="136.1" y2="180.1" stroke="#FF6B1A" stroke-width="3" stroke-linecap="round"/>
<line x1="240.0" y1="260.0" x2="148.1" y2="168.1" stroke="#FF6B1A" stroke-width="3" stroke-linecap="round"/>
<line x1="238.9" y1="234.8" x2="214.8" y2="258.9" stroke="#FF6B1A" stroke-width="3" stroke-linecap="round"/>
<line x1="225.8" y1="221.7" x2="201.7" y2="245.8" stroke="#FF6B1A" stroke-width="3" stroke-linecap="round"/>
<line x1="212.6" y1="208.6" x2="188.6" y2="232.6" stroke="#FF6B1A" stroke-width="3" stroke-linecap="round"/>
<line x1="199.5" y1="195.5" x2="175.5" y2="219.5" stroke="#FF6B1A" stroke-width="3" stroke-linecap="round"/>
<line x1="186.4" y1="182.3" x2="162.3" y2="206.4" stroke="#FF6B1A" stroke-width="3" stroke-linecap="round"/>
<line x1="173.2" y1="169.2" x2="149.2" y2="193.2" stroke="#FF6B1A" stroke-width="3" stroke-linecap="round"/>
<line x1="228.0" y1="248.0" x2="136.1" y2="339.9" stroke="#FF6B1A" stroke-width="3" stroke-linecap="round"/>
<line x1="252.0" y1="272.0" x2="160.1" y2="363.9" stroke="#FF6B1A" stroke-width="3" stroke-linecap="round"/>
<line x1="136.1" y1="339.9" x2="160.1" y2="363.9" stroke="#FF6B1A" stroke-width="3" stroke-linecap="round"/>
<line x1="240.0" y1="260.0" x2="148.1" y2="351.9" stroke="#FF6B1A" stroke-width="3" stroke-linecap="round"/>
<line x1="214.8" y1="261.1" x2="238.9" y2="285.2" stroke="#FF6B1A" stroke-width="3" stroke-linecap="round"/>
<line x1="201.7" y1="274.2" x2="225.8" y2="298.3" stroke="#FF6B1A" stroke-width="3" stroke-linecap="round"/>
<line x1="188.6" y1="287.4" x2="212.6" y2="311.4" stroke="#FF6B1A" stroke-width="3" stroke-linecap="round"/>
<line x1="175.5" y1="300.5" x2="199.5" y2="324.5" stroke="#FF6B1A" stroke-width="3" stroke-linecap="round"/>
<line x1="162.3" y1="313.6" x2="186.4" y2="337.7" stroke="#FF6B1A" stroke-width="3" stroke-linecap="round"/>
<line x1="149.2" y1="326.8" x2="173.2" y2="350.8" stroke="#FF6B1A" stroke-width="3" stroke-linecap="round"/>
<line x1="228.0" y1="272.0" x2="319.9" y2="363.9" stroke="#FF6B1A" stroke-width="3" stroke-linecap="round"/>
<line x1="252.0" y1="248.0" x2="343.9" y2="339.9" stroke="#FF6B1A" stroke-width="3" stroke-linecap="round"/>
<line x1="319.9" y1="363.9" x2="343.9" y2="339.9" stroke="#FF6B1A" stroke-width="3" stroke-linecap="round"/>
<line x1="240.0" y1="260.0" x2="331.9" y2="351.9" stroke="#FF6B1A" stroke-width="3" stroke-linecap="round"/>
<line x1="241.1" y1="285.2" x2="265.2" y2="261.1" stroke="#FF6B1A" stroke-width="3" stroke-linecap="round"/>
<line x1="254.2" y1="298.3" x2="278.3" y2="274.2" stroke="#FF6B1A" stroke-width="3" stroke-linecap="round"/>
<line x1="267.4" y1="311.4" x2="291.4" y2="287.4" stroke="#FF6B1A" stroke-width="3" stroke-linecap="round"/>
<line x1="280.5" y1="324.5" x2="304.5" y2="300.5" stroke="#FF6B1A" stroke-width="3" stroke-linecap="round"/>
<line x1="293.6" y1="337.7" x2="317.7" y2="313.6" stroke="#FF6B1A" stroke-width="3" stroke-linecap="round"/>
<line x1="306.8" y1="350.8" x2="330.8" y2="326.8" stroke="#FF6B1A" stroke-width="3" stroke-linecap="round"/>
<circle cx="240" cy="260" r="10" fill="none" stroke="#FF6B1A" stroke-width="3"/>
<rect x="237" y="257" width="6" height="6" fill="#FF6B1A"/>
<line x1="226.0" y1="275.0" x2="254.0" y2="275.0" stroke="#FF6B1A" stroke-width="3" stroke-linecap="round"/>
<line x1="219.0" y1="282.0" x2="226.0" y2="275.0" stroke="#FF6B1A" stroke-width="3" stroke-linecap="round"/>
<line x1="261.0" y1="282.0" x2="254.0" y2="275.0" stroke="#FF6B1A" stroke-width="3" stroke-linecap="round"/>
<line x1="219.0" y1="282.0" x2="219.0" y2="300.0" stroke="#FF6B1A" stroke-width="3" stroke-linecap="round"/>
<line x1="261.0" y1="282.0" x2="261.0" y2="300.0" stroke="#FF6B1A" stroke-width="3" stroke-linecap="round"/>
<line x1="219.0" y1="300.0" x2="202.0" y2="302.0" stroke="#FF6B1A" stroke-width="3" stroke-linecap="round"/>
<line x1="261.0" y1="300.0" x2="278.0" y2="302.0" stroke="#FF6B1A" stroke-width="3" stroke-linecap="round"/>
<line x1="202.0" y1="302.0" x2="278.0" y2="302.0" stroke="#FF6B1A" stroke-width="3" stroke-linecap="round"/>
<line x1="202.0" y1="302.0" x2="191.0" y2="365.0" stroke="#FF6B1A" stroke-width="3" stroke-linecap="round"/>
<line x1="278.0" y1="302.0" x2="289.0" y2="365.0" stroke="#FF6B1A" stroke-width="3" stroke-linecap="round"/>
<rect x="233" y="314.0" width="14" height="18" fill="none" stroke="#FF6B1A" stroke-width="2"/>
<line x1="176.0" y1="365.0" x2="304.0" y2="365.0" stroke="#FF6B1A" stroke-width="4" stroke-linecap="round"/>
<line x1="176.0" y1="372.0" x2="304.0" y2="372.0" stroke="#FF6B1A" stroke-width="3" stroke-linecap="round"/>
<line x1="181.0" y1="358.0" x2="181.0" y2="365.0" stroke="#FF6B1A" stroke-width="1.5" stroke-linecap="round"/>
<line x1="191.0" y1="358.0" x2="191.0" y2="365.0" stroke="#FF6B1A" stroke-width="1.5" stroke-linecap="round"/>
<line x1="201.0" y1="358.0" x2="201.0" y2="365.0" stroke="#FF6B1A" stroke-width="1.5" stroke-linecap="round"/>
<line x1="211.0" y1="358.0" x2="211.0" y2="365.0" stroke="#FF6B1A" stroke-width="1.5" stroke-linecap="round"/>
<line x1="221.0" y1="358.0" x2="221.0" y2="365.0" stroke="#FF6B1A" stroke-width="1.5" stroke-linecap="round"/>
<line x1="231.0" y1="358.0" x2="231.0" y2="365.0" stroke="#FF6B1A" stroke-width="1.5" stroke-linecap="round"/>
<line x1="241.0" y1="358.0" x2="241.0" y2="365.0" stroke="#FF6B1A" stroke-width="1.5" stroke-linecap="round"/>
<line x1="251.0" y1="358.0" x2="251.0" y2="365.0" stroke="#FF6B1A" stroke-width="1.5" stroke-linecap="round"/>
<line x1="261.0" y1="358.0" x2="261.0" y2="365.0" stroke="#FF6B1A" stroke-width="1.5" stroke-linecap="round"/>
<line x1="271.0" y1="358.0" x2="271.0" y2="365.0" stroke="#FF6B1A" stroke-width="1.5" stroke-linecap="round"/>
<line x1="281.0" y1="358.0" x2="281.0" y2="365.0" stroke="#FF6B1A" stroke-width="1.5" stroke-linecap="round"/>
<line x1="291.0" y1="358.0" x2="291.0" y2="365.0" stroke="#FF6B1A" stroke-width="1.5" stroke-linecap="round"/>
<line x1="189.0" y1="377.0" x2="176.0" y2="485.0" stroke="#FF6B1A" stroke-width="3" stroke-linecap="round"/>
<line x1="291.0" y1="377.0" x2="304.0" y2="485.0" stroke="#FF6B1A" stroke-width="3" stroke-linecap="round"/>
<line x1="158.0" y1="485.0" x2="322.0" y2="485.0" stroke="#FF6B1A" stroke-width="4" stroke-linecap="round"/>
<rect x="207" y="398.0" width="14" height="18" fill="none" stroke="#FF6B1A" stroke-width="2"/>
<rect x="259" y="398.0" width="14" height="18" fill="none" stroke="#FF6B1A" stroke-width="2"/>
<rect x="229" y="443.0" width="22" height="42" fill="none" stroke="#FF6B1A" stroke-width="2"/>
<line x1="240.0" y1="447.0" x2="240.0" y2="483.0" stroke="#FF6B1A" stroke-width="1" stroke-linecap="round"/>
<text x="240" y="520" text-anchor="middle" font-family="'Courier New', ui-monospace, monospace" font-weight="bold" font-size="34" fill="#FF6B1A" letter-spacing="2">DutchVMS</text>
<text x="240" y="544" text-anchor="middle" font-family="'Courier New', ui-monospace, monospace" font-size="13" fill="#A0A0B0" letter-spacing="1">WHY2025 badge firmware</text>
</svg>
